<?xml version="1.0" encoding="UTF-8"?>
<!DOCTYPE svg PUBLIC "-//W3C//DTD SVG 1.1//EN" "http://www.w3.org/Graphics/SVG/1.1/DTD/svg11.dtd">
<!-- Creator: CorelDRAW X7 -->
<svg xmlns="http://www.w3.org/2000/svg" xml:space="preserve" width="265px" height="74px" version="1.1" style="shape-rendering:geometricPrecision; text-rendering:geometricPrecision; image-rendering:optimizeQuality; fill-rule:evenodd; clip-rule:evenodd"
viewBox="0 0 265 74"
 xmlns:xlink="http://www.w3.org/1999/xlink">
 <defs>
  <style type="text/css">
   <![CDATA[
    .fil0 {fill:#FEFEFE}
   ]]>
  </style>
 </defs>
 <g id="Layer_x0020_1">
  <metadata id="CorelCorpID_0Corel-Layer"/>
  <g id="_1937534393168">
   <path class="fil0" d="M53 72c0,1 -2,2 -3,2 -3,0 -5,-2 -5,-5 0,-3 2,-5 5,-5 1,0 2,1 3,1l-1 1c0,0 -1,-1 -2,-1 -2,0 -4,2 -4,4 0,2 2,3 4,3 1,0 2,0 2,-1l1 1z"/>
   <path class="fil0" d="M59 68c-2,0 -2,1 -2,2 0,1 0,3 2,3 1,0 2,-2 2,-3 0,-1 -1,-2 -2,-2zm0 6c-2,0 -4,-2 -4,-4 0,-2 2,-3 4,-3 2,0 3,1 3,3 0,2 -1,4 -3,4z"/>
   <path class="fil0" d="M66 68c0,0 1,-1 2,-1 1,0 2,0 2,1 0,0 1,-1 2,-1 2,0 2,1 2,3l0 3 -1 0 0 -3c0,-1 0,-2 -1,-2 -1,0 -2,1 -2,2l0 3 -1 0 0 -3c0,-1 0,-2 -1,-2 -1,0 -2,1 -2,2l0 3 -1 0 0 -4c0,-1 0,-1 0,-2l1 0c0,1 0,1 0,1l0 0z"/>
   <path class="fil0" d="M79 68c0,0 1,-1 2,-1 1,0 1,0 2,1 0,0 1,-1 2,-1 1,0 2,1 2,3l0 3 -1 0 0 -3c0,-1 -1,-2 -2,-2 -1,0 -1,1 -1,2l0 3 -1 0 0 -3c0,-1 -1,-2 -2,-2 -1,0 -1,1 -1,2l0 3 -1 0 0 -4c0,-1 0,-1 0,-2l1 0c0,1 0,1 0,1l0 0z"/>
   <path class="fil0" d="M91 73l-1 0 0 -6 1 0 0 6zm0 -7c-1,0 -1,0 -1,-1 0,0 0,-1 1,-1 0,0 1,1 1,1 0,1 -1,1 -1,1z"/>
   <path class="fil0" d="M98 68l-2 0 0 3c0,1 0,1 1,1 0,0 1,0 1,0l0 1c0,0 -1,0 -1,0 -1,0 -2,0 -2,-1l0 -4 -1 0 0 -1 1 0 0 -1 1 0 0 1 2 0 0 1z"/>
   <path class="fil0" d="M103 68l-1 0 0 3c0,1 0,1 1,1 0,0 0,0 0,0l0 1c0,0 0,0 -1,0 -1,0 -1,0 -1,-1l0 -4 -2 0 0 -1 2 0 0 -1 1 0 0 1 1 0 0 1z"/>
   <path class="fil0" d="M110 70c0,-1 0,-2 -2,-2 -1,0 -1,1 -2,2l4 0zm1 1l-5 0c0,1 1,2 2,2 1,0 2,-1 2,-1l1 0c-1,1 -1,2 -3,2 -1,0 -3,-2 -3,-4 0,-2 2,-3 3,-3 2,0 3,1 3,3 0,0 0,1 0,1z"/>
   <path class="fil0" d="M117 73c1,0 2,-1 2,-3 0,-1 -1,-2 -2,-2 -1,0 -2,1 -2,2 0,1 1,3 2,3zm2 -1c0,1 -1,2 -2,2 -2,0 -3,-2 -3,-4 0,-1 1,-3 3,-3 1,0 2,1 2,1l0 0 0 -4 1 0 0 9 -1 0 0 -1 0 0z"/>
   <path class="fil0" d="M131 68l-1 0 0 3c0,1 0,1 0,1 1,0 1,0 1,0l0 1c0,0 -1,0 -1,0 -1,0 -2,0 -2,-1l0 -4 -1 0 0 -1 1 0 0 -1 2 0 0 1 1 0 0 1z"/>
   <path class="fil0" d="M137 68c-2,0 -3,1 -3,2 0,1 1,3 3,3 1,0 2,-2 2,-3 0,-1 -1,-2 -2,-2zm0 6c-2,0 -4,-2 -4,-4 0,-2 2,-3 4,-3 1,0 3,1 3,3 0,2 -2,4 -3,4z"/>
   <polygon class="fil0" points="149,72 153,72 153,73 147,73 147,64 153,64 153,65 149,65 149,68 153,68 153,69 149,69 "/>
   <polygon class="fil0" points="157,70 155,67 157,67 158,69 160,67 161,67 159,70 161,73 160,73 158,71 156,73 155,73 "/>
   <path class="fil0" d="M168 69c0,-1 -1,-1 -1,-1 -2,0 -2,1 -2,2 0,2 0,3 2,3 0,0 1,-1 1,-1l1 1c-1,0 -1,1 -2,1 -2,0 -4,-2 -4,-4 0,-2 2,-3 4,-3 1,0 1,0 2,1l-1 1z"/>
   <path class="fil0" d="M176 70c0,-1 -1,-2 -2,-2 -1,0 -2,1 -2,2l4 0zm1 1l-5 0c0,1 1,2 2,2 1,0 2,-1 2,-1l1 0c-1,1 -2,2 -3,2 -2,0 -3,-2 -3,-4 0,-2 1,-3 3,-3 2,0 3,1 3,3 0,0 0,1 0,1z"/>
   <polygon class="fil0" points="181,73 180,73 180,64 181,64 "/>
   <polygon class="fil0" points="186,73 185,73 185,64 186,64 "/>
   <path class="fil0" d="M194 70c0,-1 -1,-2 -2,-2 -1,0 -2,1 -2,2l4 0zm1 1l-5 0c0,1 1,2 2,2 1,0 2,-1 2,-1l1 0c-1,1 -2,2 -3,2 -2,0 -3,-2 -3,-4 0,-2 1,-3 3,-3 2,0 3,1 3,3 0,0 0,1 0,1z"/>
   <path class="fil0" d="M199 67c0,1 0,1 0,1l0 0c0,0 1,-1 2,-1 2,0 2,1 2,3l0 3 -1 0 0 -3c0,-1 0,-2 -1,-2 -1,0 -2,1 -2,2l0 3 -1 0 0 -4c0,-1 0,-1 0,-2l1 0z"/>
   <path class="fil0" d="M211 69c0,-1 -1,-1 -1,-1 -2,0 -2,1 -2,2 0,2 0,3 2,3 0,0 1,-1 1,-1l1 1c-1,0 -1,1 -2,1 -2,0 -4,-2 -4,-4 0,-2 2,-3 4,-3 0,0 1,0 2,1l-1 1z"/>
   <path class="fil0" d="M219 70c0,-1 -1,-2 -2,-2 -1,0 -2,1 -2,2l4 0zm1 1l-5 0c0,1 1,2 2,2 1,0 2,-1 2,-1l1 0c-1,1 -2,2 -3,2 -2,0 -3,-2 -3,-4 0,-2 1,-3 3,-3 2,0 3,1 3,3 0,0 0,1 0,1z"/>
   <path class="fil0" d="M188 35c-3,0 -5,1 -7,1l7 -32 7 32c-3,0 -5,-1 -7,-1zm18 7c-2,-2 -5,-3 -7,-4l-11 -38 -11 38c-3,1 -5,2 -7,4 2,-1 4,-2 6,-3l-4 16 5 0 4 -17c2,0 4,-1 7,-1 2,0 5,1 7,1l4 17 5 0 -5 -16c2,1 5,2 7,3zm-66 11c-1,1 -1,1 -2,1l-10 0 0 -12 7 0c0,0 0,0 1,0 0,0 0,1 0,1l1 2 0 -8 -1 2c0,1 0,1 0,1 -1,0 -1,0 -1,0l-7 0 0 -11 10 0c1,0 1,1 1,1 1,0 1,0 1,1l1 2 0 -5 -19 0 2 1c1,0 1,0 1,0 1,1 1,1 1,1l0 23c0,0 0,0 -1,1 0,0 0,0 -1,0l-2 1 20 0 1 -7 -2 4c0,1 -1,1 -1,1zm26 0c0,1 -1,1 -1,1l-10 0 0 -23c0,-1 0,-1 0,-2 0,0 1,0 1,0l2 -1 -9 0 2 1c0,0 0,0 1,0 0,1 0,1 0,2l0 22c0,0 0,0 0,1 -1,0 -1,0 -1,1l-2 0 19 0 2 -6 -3 3c0,1 0,1 -1,1zm-73 -25l0 5 1 -2c0,-1 1,-1 1,-1 0,0 1,0 1,0l8 0 0 23c0,0 0,0 -1,1 0,0 0,0 0,1l-3 0 10 0 -2 0c-1,-1 -1,-1 -1,-1 0,-1 0,-1 0,-1l0 -23 7 0c1,0 1,0 1,0 1,0 1,0 1,1l1 2 0 -5 -24 0zm135 0l0 1c1,0 1,0 1,0 0,1 1,1 1,2l0 19 -18 -22 -5 0 2 1c0,0 1,0 1,0 0,1 0,1 0,2l0 22c0,0 0,0 0,1 0,0 -1,0 -1,0l-2 1 8 0 -2 -1c0,0 -1,0 -1,0 0,-1 0,-1 0,-1l0 -22 19 25 0 -26c0,0 0,0 1,-1 0,0 0,0 0,0l2 -1 -6 0 0 0zm34 14c0,-2 0,-4 0,-5 -1,-2 -1,-3 -2,-4 -1,-1 -2,-2 -4,-3 -1,0 -3,0 -5,0l-7 0 0 24 7 0 0 0c2,0 4,-1 5,-1 2,-1 3,-2 4,-3 1,-1 1,-2 2,-3 0,-2 0,-4 0,-5zm3 0c0,1 0,3 -1,5 0,2 -1,3 -2,4 -1,2 -3,3 -5,3 -1,1 -3,1 -6,1l-13 0 2 0c1,-1 1,-1 1,-1 1,-1 1,-1 1,-1l0 -22c0,-1 0,-1 -1,-2 0,0 0,0 -1,0l-2 -1 13 0 0 0c3,0 5,0 6,1 2,1 4,2 5,3 1,1 2,2 2,4l0 0c1,2 1,4 1,6zm-180 -13c0,0 0,0 1,0l2 -1 -10 0 3 1c0,0 0,0 1,0 0,1 0,1 0,2l0 22c0,0 0,1 0,1 -1,0 -1,0 -1,1l-3 0 10 0 -2 0c-1,-1 -1,-1 -1,-1 0,0 0,-1 0,-1l0 -22c0,-1 0,-1 0,-2zm-13 0c0,0 0,0 1,0l2 -1 -10 0 2 1c1,0 1,0 1,0 1,1 1,1 1,2l0 9 -18 0 0 -9c0,-1 0,-1 1,-2 0,0 0,0 0,0l3 -1 -10 0 2 1c1,0 1,0 1,0 0,1 0,1 0,2l0 22c0,0 0,1 0,1 0,0 0,0 -1,1l-2 0 10 0 -3 0c0,-1 0,-1 0,-1 -1,0 -1,-1 -1,-1l0 -11 18 0 0 11c0,0 0,1 -1,1 0,0 0,0 -1,1l-2 0 10 0 -2 0c-1,-1 -1,-1 -1,-1 -1,0 -1,-1 -1,-1l0 -22c0,-1 0,-1 1,-2zm-37 -1l6 0 -2 1c-1,0 -1,1 -1,2l-11 25 -6 -14 -6 14 -11 -25c0,-1 -1,-2 -2,-2l-2 -1 10 0 -3 1c0,0 0,0 0,0 0,1 0,1 0,1l8 20 5 -10 -4 -9c0,-1 -1,-2 -2,-2l-2 -1 10 0 -3 1c0,0 0,0 -1,0 0,1 0,1 0,1l9 20 9 -20c0,0 0,0 0,-1 0,0 0,0 0,0l-1 -1 0 0 0 0 -1 0 1 0 0 0 0 0zm153 0l2 0 0 -2 -2 0 0 2zm0 4l2 0 0 -3 -2 0 0 3zm-3 -2l2 0 0 2 -2 0 0 -2zm0 -4l2 0 0 3 -2 0 0 -3z"/>
  </g>
 </g>
</svg>
